<svg xmlns="http://www.w3.org/2000/svg" fill="none" viewBox="0 0 36 36"><g clip-path="url(#clip0)"><path fill="#FFCC4D" d="M35.7 20c-.3-3.3-.7-5-1.7-7 0 0 3-9 1-12.7C34.3-.9 27.6 2 25 4c0 0-4-1-7-1s-7 1-7 1C8.4 2 1.7-1 1 .3-1 4 2 13 2 13 1 15 .6 16.7.3 20a15 15 0 00.7 7c.4.7 2.4 3 5 5 4 3 10 4 12 4s8-1 12-4c2.6-2 4.6-4.3 5-5a15 15 0 00.7-7z"/><path fill="#E75A70" d="M18 19.5c3 0 3 .5 3 1.5s-1.5 3-3 3-3-2-3-3 0-1.5 3-1.5z"/><path fill="#F18F26" d="M2 3c.4-1.3 5.6 1 6.6 2C8.6 5 4 8 3 11c0 0-2-5-1-8zm32 0c-.4-1.3-5.6 1-6.6 2 0 0 4.6 3 5.6 6 0 0 2-5 1-8z"/><path fill="#FFCC4D" d="M5 5.6C5 4.2 11 7 10 8s-2 1.6-3 2.6-2-4-2-5zm26 0C31 4.2 25 7 26 8s2 1.6 3 2.6 2-4 2-5z"/><path fill="#FEE7B8" d="M.7 25a.5.5 0 01-.3-.9c.2-.1 4-3.1 10.6-2.6.3 0 .5.3.5.5 0 .3-.3.5-.5.5-6.3-.5-10 2.4-10 2.4l-.3.1zm8.9-4.7h-.2C4.6 18.8.7 20 .6 20a.5.5 0 11-.2-1c.1 0 4.2-1.2 9.3.4a.5.5 0 01-.1 1zM35.3 25a.5.5 0 00.3-.9 15.9 15.9 0 00-10.8-2.5.5.5 0 00-.3.4c0 .3.3.5.5.5 6.3-.5 10 2.4 10 2.4l.3.1zm-8.9-4.7h.2c4.8-1.5 8.7-.3 8.8-.3a.5.5 0 10.2-1c-.1 0-4.2-1.2-9.3.4a.5.5 0 00.1 1z"/><path fill="#292F33" d="M25.4 30.6c-.5-.7-3.5-5.1-7.4-5.1-4.2 0-7.3 5-7.4 5.2a.5.5 0 00.7.7s2.9-1.9 6.7-1.9c3.8 0 6.7 1.9 6.7 2h.3a.5.5 0 00.5-.5.5.5 0 00-.1-.4zM12 18c1.1 0 2-1.6 2-3.5 0-2-.9-3.5-2-3.5s-2 1.6-2 3.5c0 2 .9 3.5 2 3.5zM24 18c1.1 0 2-1.6 2-3.5 0-2-.9-3.5-2-3.5s-2 1.6-2 3.5c0 2 .9 3.5 2 3.5zM31 14a1 1 0 01-.8-.4A8.4 8.4 0 0024 10a1 1 0 010-2c.2 0 4.5 0 7.8 4.4A1 1 0 0131 14zM5 14a1 1 0 01-.8-1.6C7.5 8.1 11.8 8 12 8a1 1 0 010 2c-.2 0-3.6 0-6.2 3.6a1 1 0 01-.8.4z"/><path fill="#5DADEC" d="M15 31a5 5 0 11-10 0c0-2.8 4-13 5-13s5 10.2 5 13z"/></g><defs><clipPath id="clip0"><rect width="36" height="36" fill="#fff"/></clipPath></defs></svg>